# Blender v2.83.0 OBJ File: 'machine.blend'
# www.blender.org
mtllib machine.mtl
o Cube_Cube.001
v -1.509385 -0.002948 1.492319
v -1.509385 1.305052 1.492319
v -1.509385 -0.002948 -1.492319
v -1.509385 3.819784 -1.492319
v 1.509385 -0.002948 1.492319
v 1.509385 1.305052 1.492319
v 1.509385 -0.002948 -1.492319
v 1.509385 3.819784 -1.492319
v -1.509385 -0.002948 2.500916
v -1.509385 1.305052 2.500916
v 1.509385 1.305052 2.500916
v 1.509385 -0.002948 2.500916
v -0.800000 3.236464 -0.800000
v -0.800000 -0.002947 -0.800000
v 0.800000 3.236464 -0.800000
v 0.800000 -0.002947 -0.800000
v 0.800000 1.895992 0.790955
v 0.800000 1.888371 0.800000
v 0.800000 -0.002947 0.800000
v -0.800000 3.228844 -0.790955
v -0.800000 1.888371 0.800000
v -0.800000 -0.002947 0.800000
v -0.800000 -0.002948 0.790955
vt 0.375000 0.000000
vt 0.625000 0.000000
vt 0.625000 0.250000
vt 0.375000 0.250000
vt 0.625000 0.500000
vt 0.375000 0.500000
vt 0.625000 0.750000
vt 0.375000 0.750000
vt 0.375000 0.000000
vt 0.625000 0.000000
vt 0.125000 0.500000
vt 0.316252 0.692010
vt 0.316252 0.557990
vt 0.183748 0.557990
vt 0.183748 0.691252
vt 0.125000 0.750000
vt 0.875000 0.500000
vt 0.816252 0.558748
vt 0.816252 0.557990
vt 0.683748 0.557990
vt 0.683748 0.691252
vt 0.375000 0.750000
vt 0.625000 0.750000
vt 0.625000 1.000000
vt 0.375000 1.000000
vt 0.125000 0.750000
vt 0.875000 0.750000
vt 0.875000 0.750000
vt 0.499927 0.750000
vt 0.546532 0.750000
vt 0.546720 0.748587
vt 0.579750 0.500000
vt 0.499927 0.500000
vt 0.579750 0.250000
vt 0.499927 0.250000
vt 0.683748 0.692010
vt 0.816252 0.692010
vt 0.579562 0.248587
vt 0.546532 0.000000
vt 0.499927 0.000000
vt 0.499927 0.001413
vt 0.499927 1.000000
vt 0.546532 1.000000
vt 0.183748 0.692010
vn -1.0000 0.0000 0.0000
vn 0.0000 0.0000 -1.0000
vn 1.0000 0.0000 0.0000
vn -0.0000 -1.0000 0.0000
vn -0.0000 0.7647 0.6443
vn 0.0000 0.0000 1.0000
vn 0.0000 1.0000 0.0000
usemtl None
s off
f 1/1/1 2/2/1 4/3/1 3/4/1
f 3/4/2 4/3/2 8/5/2 7/6/2
f 7/6/3 8/5/3 6/7/3 5/8/3
f 2/2/1 1/1/1 9/9/1 10/10/1
f 3/11/4 7/6/4 5/8/4 19/12/4 16/13/4 14/14/4 23/15/4 1/16/4
f 8/5/5 4/17/5 20/18/5 13/19/5 15/20/5 17/21/5 6/7/5
f 12/22/6 11/23/6 10/24/6 9/25/6
f 1/16/4 5/8/4 12/22/4 9/26/4
f 6/7/7 2/27/7 10/28/7 11/23/7
f 5/8/3 6/7/3 11/23/3 12/22/3
f 19/29/1 18/30/1 17/31/1 15/32/1 16/33/1
f 16/33/6 15/32/6 13/34/6 14/35/6
f 6/7/5 17/21/5 18/36/5 21/37/5 20/18/5 4/17/5 2/27/5
f 14/35/3 13/34/3 20/38/3 21/39/3 22/40/3 23/41/3
f 22/42/2 21/43/2 18/30/2 19/29/2
f 1/16/4 23/15/4 22/44/4 19/12/4 5/8/4
